<svg xmlns="http://www.w3.org/2000/svg" version="1.1" viewBox="0 0 32 32" xml:space="preserve"><title>file_type_light_spin</title><g transform="translate(-.013672 -.011774)"><rect width="2.9" height="27.997" x="11.026" y="2.014"/><path stroke-width="1.024" d="m16.014 4.3379a11.576 11.637 0 0 0-11.576 11.639 11.576 11.637 0 0 0 11.576 11.637 11.576 11.637 0 0 0 11.576-11.637 11.576 11.637 0 0 0-11.576-11.639zm0.03516 2.7969a8.8312 8.878 0 0 1 8.832 8.877 8.8312 8.878 0 0 1-8.832 8.8789 8.8312 8.878 0 0 1-8.8301-8.8789 8.8312 8.878 0 0 1 8.8301-8.877z"/></g></svg>