<svg xmlns="http://www.w3.org/2000/svg" fill="none" version="1.1" viewBox="0 0 32 32"><g stroke-width=".5"><path fill="url(#g)" d="m25 22h2c0.552 0 1 0.448 1 1v3c0 0.552-0.448 1-1 1h-2z"/><path fill="url(#f)" d="m25 16h2c0.552 0 1 0.448 1 1v3c0 0.552-0.448 1-1 1h-2z"/><path fill="url(#e)" d="m25 10h2c0.552 0 1 0.448 1 1v3c0 0.552-0.448 1-1 1h-2z"/><path fill="url(#d)" d="m25 4h2c0.552 0 1 0.448 1 1v3c0 0.552-0.448 1-1 1h-2z"/><path fill="url(#c)" d="m4 22v6c0 1.1 0.9 2 2 2h18c1.1 0 2-0.9 2-2v-6z"/></g><path stroke="url(#b)" d="m4.5 28v-5.5h21v5.5c0 0.8238-0.6762 1.5-1.5 1.5h-18c-0.8238 0-1.5-0.6762-1.5-1.5z"/><path fill="url(#a)" stroke-width=".5" d="m26 5v19c0 1.1-0.9 2-2 2h-18c-1.1 0-2 0.9-2 2v-23c0-1.66 1.34-3 3-3h16c1.66 0 3 1.34 3 3z"/><rect width="13.5" height="4.5" x="8.5" y="6" fill="#fff" stroke-width=".5" rx="1"/><defs><linearGradient id="g" x1="60" x2="56" y1="52.5" y2="52.5" gradientTransform="matrix(.5 0 0 .5 -3 -2)" gradientUnits="userSpaceOnUse"><stop offset="0" stop-color="#0078D4"/><stop offset="1" stop-color="#0050AC"/></linearGradient><linearGradient id="f" x1="60" x2="56" y1="41" y2="41" gradientTransform="matrix(.5 0 0 .5 -3 -2)" gradientUnits="userSpaceOnUse"><stop offset="0" stop-color="#107C10"/><stop offset="1" stop-color="#005400"/></linearGradient><linearGradient id="e" x1="60" x2="56" y1="28.5" y2="28.5" gradientTransform="matrix(.5 0 0 .5 -3 -2)" gradientUnits="userSpaceOnUse"><stop offset="0" stop-color="#E25A01"/><stop offset="1" stop-color="#BA3200"/></linearGradient><linearGradient id="d" x1="60" x2="56" y1="17" y2="17" gradientTransform="matrix(.5 0 0 .5 -3 -2)" gradientUnits="userSpaceOnUse"><stop offset="0" stop-color="#D70A0A"/><stop offset=".728" stop-color="#A50000"/></linearGradient><linearGradient id="c" x1="48" x2="41.37" y1="48" y2="51.04" gradientTransform="matrix(.5 0 0 .5 -3 -2)" gradientUnits="userSpaceOnUse"><stop offset="0" stop-color="#D7D4D4"/><stop offset="1" stop-color="#EAE8E8"/></linearGradient><linearGradient id="b" x1="36" x2="36" y1="48" y2="64" gradientTransform="matrix(.5 0 0 .5 -3 -2)" gradientUnits="userSpaceOnUse"><stop offset="0" stop-opacity=".35"/><stop offset="1" stop-opacity=".3"/></linearGradient><linearGradient id="a" x1="14" x2="58" y1="3.5" y2="65" gradientTransform="matrix(.5 0 0 .5 -3 -2)" gradientUnits="userSpaceOnUse"><stop offset="0" stop-color="#A35CFF"/><stop offset="1" stop-color="#4931DE"/></linearGradient></defs><script/><link/></svg>