<svg xmlns="http://www.w3.org/2000/svg" version="1.1" viewBox="0 0 32 32"><title>file_type_bazel_version</title><g><path fill="#76d275" d="m9 2 7 7-7 7-7-7z" style="mix-blend-mode:color-dodge"/><path fill="#43a047" d="m2 9v7l7 7v-7z" style="mix-blend-mode:color-dodge"/><path fill="#76d275" d="m23 2 7 7-7 7-7-7z" style="mix-blend-mode:color-dodge"/><path fill="#43a047" d="m30 9v7l-7 7v-7z" style="mix-blend-mode:color-dodge"/><path fill="#43a047" d="m16 9 7 7-7 7-7-7z" style="mix-blend-mode:color-dodge"/><path fill="#00701a" d="m16 23v7l-7-7v-7z" style="mix-blend-mode:color-dodge"/><path fill="#004300" d="m16 23 7-7v7l-7 7z" style="mix-blend-mode:color-dodge"/></g><g style="mix-blend-mode:screen"><path fill="#f60" d="m9 2-7 7v7l14 14 14-14v-7l-7-7-7 7z" style="mix-blend-mode:screen"/></g></svg>