<svg xmlns="http://www.w3.org/2000/svg" version="1.1" viewBox="0 0 32 32" xml:space="preserve"><defs><clipPath id="c"><path fill="#fff" d="m0 0h223v236h-223z"/></clipPath><linearGradient id="b" x1="49.009" x2="225.83" y1="213.75" y2="129.72" gradientUnits="userSpaceOnUse"><stop offset="0" stop-color="#E40035"/><stop offset=".24" stop-color="#F60A48"/><stop offset=".352" stop-color="#F20755"/><stop offset=".494" stop-color="#DC087D"/><stop offset=".745" stop-color="#9717E7"/><stop offset="1" stop-color="#6C00F5"/></linearGradient><linearGradient id="a" x1="41.025" x2="156.74" y1="28.344" y2="160.34" gradientUnits="userSpaceOnUse"><stop offset="0" stop-color="#FF31D9"/><stop offset="1" stop-color="#FF5BE1" stop-opacity="0"/></linearGradient></defs><title>folder_type_next</title><path fill="#a50027" d="M27.417,5.5H18.19L16.107,9.7H4.5V26.5h25V5.5Zm0,4.2H19.282l1.091-2.1h7.044Z"/><g clip-path="url(#c)" transform="matrix(.081054 0 0 .085082 12.5 11)"><path fill="url(#b)" d="m222.08 39.192-8.019 125.92-76.671-165.12zm-53.105 162.82-57.933 33.056-57.934-33.056 11.783-28.556h92.301zm-57.933-139.34 30.357 73.803h-60.715zm-103.1 102.44-7.937-125.92 84.69-39.192z"/><path fill="url(#a)" d="m222.08 39.192-8.019 125.92-76.671-165.12zm-53.105 162.82-57.933 33.056-57.934-33.056 11.783-28.556h92.301zm-57.933-139.34 30.357 73.803h-60.715zm-103.1 102.44-7.937-125.92 84.69-39.192z"/></g></svg>