<svg xmlns="http://www.w3.org/2000/svg" version="1.1" viewBox="0 0 32 32" xml:space="preserve"><title>folder_type_next</title><path fill="#584be2" d="M27.417,5.5H18.19L16.107,9.7H4.5V26.5h25V5.5Zm0,4.2H19.282l1.091-2.1h7.044Z"/><g transform="matrix(.72659 0 0 .72659 10.435 8.3383)"><polyline fill="#40d0fd" points="15.383 18.316 18.744 15.042 27.093 15.042 19.697 22.438 15.383 18.316 15.383 18.316 15.383 18.316 15.383 18.316 15.383 18.316"/><polygon fill="#41d0fd" points="9.106 20.424 27.093 2.287 18.744 2.287 4.907 16.125" style="isolation:isolate"/><polygon fill="#1fbcfd" points="15.435 26.675 19.697 22.438 15.383 18.316 11.176 22.479"/><polygon fill="#095a9d" points="19.697 22.438 26.989 29.813 18.593 29.813 15.435 26.675"/><polygon fill="#0e5199" points="15.435 26.675 19.406 25.354 18.068 24.057"/></g></svg>