<svg xmlns="http://www.w3.org/2000/svg" version="1.1" viewBox="0 0 32 32"><title>folder_type_next_opened</title><path fill="#786fe7" d="M27.4,5.5H18.2L16.1,9.7H4.3v4H.5L4.3,26.5H29.5V5.5ZM20.2,7.6h7.1V9.7H19.2Zm5.5,6.1H6.6V11.8H27.4v7.626Z"/><g transform="matrix(.72659 0 0 .72659 10.435 8.3383)"><polyline fill="#40d0fd" points="15.383 18.316 18.744 15.042 27.093 15.042 19.697 22.438 15.383 18.316 15.383 18.316 15.383 18.316 15.383 18.316 15.383 18.316"/><polygon fill="#41d0fd" points="9.106 20.424 27.093 2.287 18.744 2.287 4.907 16.125" style="isolation:isolate"/><polygon fill="#1fbcfd" points="15.435 26.675 19.697 22.438 15.383 18.316 11.176 22.479"/><polygon fill="#095a9d" points="19.697 22.438 26.989 29.813 18.593 29.813 15.435 26.675"/><polygon fill="#0e5199" points="18.068 24.057 15.435 26.675 19.406 25.354"/></g></svg>