<svg xmlns="http://www.w3.org/2000/svg" version="1.1" viewBox="0 0 32 32" xml:space="preserve"><defs><clipPath id="a"><path fill="#fff" d="m0 0h223v236h-223z"/></clipPath><linearGradient id="b" x1="49.009" x2="225.83" y1="213.75" y2="129.72" gradientUnits="userSpaceOnUse"><stop offset="0" stop-color="#E40035"/><stop offset=".24" stop-color="#F60A48"/><stop offset=".352" stop-color="#F20755"/><stop offset=".494" stop-color="#DC087D"/><stop offset=".745" stop-color="#9717E7"/><stop offset="1" stop-color="#6C00F5"/></linearGradient><linearGradient id="c" x1="41.025" x2="156.74" y1="28.344" y2="160.34" gradientUnits="userSpaceOnUse"><stop offset="0" stop-color="#FF31D9"/><stop offset="1" stop-color="#FF5BE1" stop-opacity="0"/></linearGradient></defs><title>default_folder_opened</title><path fill="#ca353c" d="M27.4,5.5H18.2L16.1,9.7H4.3V26.5H29.5V5.5Zm0,18.7H6.6V11.8H27.4Zm0-14.5H19.2l1-2.1h7.1V9.7Z"/><polygon fill="#c9353d" points="25.7 13.7 .5 13.7 4.3 26.5 29.5 26.5"/><g clip-path="url(#a)" transform="matrix(.081054 0 0 .085082 12.5 11)"><path fill="url(#b)" d="m222.08 39.192-8.019 125.92-76.671-165.12zm-53.105 162.82-57.933 33.056-57.934-33.056 11.783-28.556h92.301zm-57.933-139.34 30.357 73.803h-60.715zm-103.1 102.44-7.937-125.92 84.69-39.192z"/><path fill="url(#c)" d="m222.08 39.192-8.019 125.92-76.671-165.12zm-53.105 162.82-57.933 33.056-57.934-33.056 11.783-28.556h92.301zm-57.933-139.34 30.357 73.803h-60.715zm-103.1 102.44-7.937-125.92 84.69-39.192z"/></g></svg>